<svg width="354" height="104" viewBox="0 0 354 104" fill="none" xmlns="http://www.w3.org/2000/svg">
<g clip-path="url(#clip0_2004_40)">
<path d="M78.9228 59.9605C79.7518 65.6835 79.4828 71.0115 78.1131 75.9474C76.7434 80.8834 74.5419 85.2352 71.5142 89.0085C68.4838 92.7844 64.7067 95.8941 60.1831 98.3374C55.6566 100.783 50.6142 102.379 45.0529 103.128C39.4889 103.874 34.1774 103.707 29.113 102.629C24.0485 101.551 19.5248 99.6234 15.5392 96.8429C11.5535 94.065 8.23211 90.4975 5.57774 86.1456C2.92063 81.791 1.21876 76.7536 0.472128 71.0307C-0.356847 65.3078 -0.0878417 59.9797 1.28189 55.0438C2.65162 50.1106 4.85033 45.7341 7.88075 41.9197C10.9112 38.1053 14.6855 34.9738 19.2119 32.5277C23.7356 30.0817 28.7781 28.4858 34.3421 27.7371C39.9034 26.9913 45.1956 27.1585 50.2189 28.2362C55.2422 29.3139 59.7466 31.2444 63.7295 34.0195C67.7152 36.8001 71.0339 40.3868 73.691 44.7798C76.3481 49.1783 78.0911 54.2348 78.9201 59.9578L78.9228 59.9605ZM26.6205 70.5344C28.0314 73.7702 30.2741 75.8844 33.3457 76.8798C36.4145 77.8752 39.9034 77.5434 43.8067 75.8844C47.6249 74.2254 50.2601 71.9658 51.7149 69.1057C53.167 66.2456 53.2301 63.1963 51.9015 59.9633C50.4879 56.8125 48.248 54.7175 45.1764 53.6809C42.1048 52.6444 38.6572 52.957 34.8417 54.6133C30.9383 56.2723 28.262 58.5538 26.8099 61.455C25.3551 64.359 25.2947 67.3864 26.6233 70.5371L26.6205 70.5344Z" fill="white"/>
<path d="M106.814 28.3624V42.172H107.064C109.222 32.9665 115.447 28.3624 125.744 28.3624C127.986 28.3624 130.103 28.4858 132.095 28.7353L125.62 55.233C125.038 55.1507 124.415 55.1096 123.753 55.1096H121.264C117.778 55.1096 114.766 56.2504 112.236 58.5319C109.702 60.8134 108.437 64.4001 108.437 69.2922V101.263L82.2854 103.504L81.5388 30.6055L106.817 28.3651L106.814 28.3624Z" fill="white"/>
<path d="M178.666 27.2436C183.648 27.2436 188.213 28.3213 192.363 30.4766C196.514 32.6347 200.123 35.4729 203.198 38.9993C206.267 42.5258 208.655 46.5266 210.357 51.0046C212.059 55.4826 212.909 60.0456 212.909 64.6881C212.909 70.9073 211.853 76.4246 209.736 81.2344C207.62 86.0442 204.817 90.0889 201.331 93.3631C197.845 96.64 193.796 99.1271 189.19 100.827C184.584 102.527 179.789 103.378 174.807 103.378C170.986 103.378 167.398 102.714 164.036 101.387C160.673 100.062 157.538 98.65 154.634 97.1555V102.506H134.958L134.212 2.23762L162.976 0L161.856 32.344C164.428 30.9346 166.918 29.7307 169.328 28.7353C171.735 27.7399 174.848 27.2436 178.666 27.2436ZM176.426 77.3789C178.419 76.8003 180.118 75.9914 181.532 74.9521C182.943 73.9155 184.085 72.7336 184.958 71.4064C185.83 70.082 186.39 68.6697 186.638 67.178C186.887 65.6862 186.802 64.1917 186.388 62.7C185.97 61.2082 185.268 59.9002 184.271 58.7814C183.275 57.6626 182.051 56.7495 180.599 56.0447C179.144 55.34 177.527 54.9259 175.743 54.7998C173.956 54.6764 172.07 54.904 170.077 55.4853C168.084 56.0667 166.361 56.8975 164.908 57.9725C163.456 59.0502 162.293 60.254 161.422 61.5812C160.549 62.9084 159.99 64.3179 159.742 65.8096C159.493 67.3014 159.575 68.7959 159.992 70.2876C160.407 71.7794 161.112 73.0874 162.109 74.2062C163.105 75.325 164.329 76.219 165.781 76.8798C167.233 77.5434 168.872 77.9383 170.7 78.0617C172.526 78.1851 174.436 77.9575 176.429 77.3789H176.426Z" fill="white"/>
<path d="M214.905 32.2206L242.676 29.9803L241.306 101.76L214.905 104V32.2206Z" fill="white"/>
<path d="M285.074 103.937C283.869 103.978 282.563 104 281.152 104C273.18 104 266.974 102.196 262.535 98.5897C258.094 94.981 255.873 89.1155 255.873 80.9876V51.5037L249.025 51.6271L249.771 30.1064H255.624V21.8963L282.645 9.70459V30.1064L292.733 28.6147L291.363 51.5037H282.895V73.2739C282.895 75.761 283.246 77.4228 283.952 78.2509C284.657 79.0818 286.255 79.4959 288.747 79.4959C289.826 79.4959 290.696 79.4547 291.363 79.3725C292.027 79.2902 292.65 79.1668 293.23 78.9995L288.871 103.63C287.542 103.797 286.274 103.899 285.072 103.942L285.074 103.937Z" fill="white"/>
<path d="M300.825 30.6028H352.751L331.832 76.5069H353.997L348.642 102.382H292.23L313.399 56.478H295.59L300.822 30.6028H300.825Z" fill="white"/>
<path d="M241.394 10.7329C241.111 8.85726 240.513 7.20098 239.607 5.7586C238.698 4.31895 237.565 3.14255 236.203 2.23215C234.842 1.32174 233.302 0.691043 231.586 0.337302C229.871 -0.0164399 228.062 -0.0712836 226.162 0.172771C224.263 0.416825 222.539 0.940582 220.993 1.7413C219.448 2.54476 218.155 3.57033 217.123 4.82077C216.088 6.0712 215.336 7.50537 214.867 9.12325C214.397 10.7411 214.307 12.4879 214.589 14.3636C214.845 16.2392 215.427 17.89 216.332 19.3187C217.241 20.7446 218.375 21.9155 219.736 22.8259C221.098 23.7363 222.643 24.3698 224.375 24.7208C226.104 25.0745 227.922 25.1294 229.821 24.8826C231.721 24.6385 233.444 24.1148 234.99 23.314C236.535 22.5133 237.825 21.4932 238.86 20.2565C239.895 19.0198 240.647 17.5939 241.117 15.976C241.583 14.3581 241.677 12.6113 241.394 10.7357V10.7329Z" fill="#EA1D8F"/>
</g>
<defs>
<clipPath id="clip0_2004_40">
<rect width="354" height="104" fill="white"/>
</clipPath>
</defs>
</svg>
